name rise30.2954peak35.7071fall66.7804.mot
datacolumns 19
datarows 55
range 12.509960 12.599961
endheader
time	ground_force1_vx	ground_force1_vy	ground_force1_vz	ground_force1_px	ground_force1_py	ground_force1_pz	ground_force2_vx	ground_force2_vy	ground_force2_vz	ground_force2_px	ground_force2_py	ground_force2_pz	ground_torque1_x	ground_torque1_y	ground_torque1_z	ground_torque2_x	ground_torque2_y	ground_torque2_z	
12.509960	0.000000	0.000000	0.000000	0.000000	0.000000	0.000000	39.128511	785.039083	-55.958609	0.294294	0.000000	-0.051403	0.000000	0.000000	0.000000	0.000000	-27.571542	0.000000	
12.511638	0.000000	0.000000	0.000000	0.000000	0.000000	0.000000	38.552130	781.974349	-55.727753	0.292833	0.000000	-0.051466	0.000000	0.000000	0.000000	0.000000	-27.405350	0.000000	
12.513286	0.000000	0.000000	0.000000	0.000000	0.000000	0.000000	37.982208	778.862291	-55.490697	0.291361	0.000000	-0.051529	0.000000	0.000000	0.000000	0.000000	-27.234877	0.000000	
12.514953	0.000000	0.000000	0.000000	0.000000	0.000000	0.000000	37.419039	775.709224	-55.248070	0.289879	0.000000	-0.051593	0.000000	0.000000	0.000000	0.000000	-27.060552	0.000000	
12.516628	0.000000	0.000000	0.000000	0.000000	0.000000	0.000000	36.862900	772.521377	-55.000513	0.288389	0.000000	-0.051656	0.000000	0.000000	0.000000	0.000000	-26.882808	0.000000	
12.518285	0.000000	0.000000	0.000000	0.000000	0.000000	0.000000	36.314048	769.304890	-54.748668	0.286894	0.000000	-0.051720	0.000000	0.000000	0.000000	0.000000	-26.702083	0.000000	
12.519954	0.000000	0.000000	0.000000	0.000000	0.000000	0.000000	35.772720	766.065795	-54.493178	0.285397	0.000000	-0.051783	0.000000	0.000000	0.000000	0.000000	-26.518817	0.000000	
12.521619	0.000000	0.000000	0.000000	0.000000	0.000000	0.000000	35.239133	762.810017	-54.234685	0.283899	0.000000	-0.051845	0.000000	0.000000	0.000000	0.000000	-26.333448	0.000000	
12.523293	0.000000	0.000000	0.000000	0.000000	0.000000	0.000000	34.713484	759.543357	-53.973823	0.282402	0.000000	-0.051907	0.000000	0.000000	0.000000	0.000000	-26.146410	0.000000	
12.524952	0.000000	0.000000	0.000000	0.000000	0.000000	0.000000	34.195944	756.271489	-53.711219	0.280910	0.000000	-0.051968	0.000000	0.000000	0.000000	0.000000	-25.958136	0.000000	
12.526638	0.000000	0.000000	0.000000	0.000000	0.000000	0.000000	33.686668	752.999953	-53.447486	0.279425	0.000000	-0.052027	0.000000	0.000000	0.000000	0.000000	-25.769048	0.000000	
12.528288	0.000000	0.000000	0.000000	0.000000	0.000000	0.000000	33.185784	749.734149	-53.183226	0.277949	0.000000	-0.052086	0.000000	0.000000	0.000000	0.000000	-25.579560	0.000000	
12.529955	0.000000	0.000000	0.000000	0.000000	0.000000	0.000000	32.693398	746.479328	-52.919018	0.276484	0.000000	-0.052142	0.000000	0.000000	0.000000	0.000000	-25.390075	0.000000	
12.531641	0.000000	0.000000	0.000000	0.000000	0.000000	0.000000	32.209592	743.240593	-52.655425	0.275033	0.000000	-0.052198	0.000000	0.000000	0.000000	0.000000	-25.200984	0.000000	
12.533294	0.000000	0.000000	0.000000	0.000000	0.000000	0.000000	31.734425	740.022890	-52.392986	0.273599	0.000000	-0.052251	0.000000	0.000000	0.000000	0.000000	-25.012664	0.000000	
12.534959	0.000000	0.000000	0.000000	0.000000	0.000000	0.000000	31.267931	736.831009	-52.132215	0.272183	0.000000	-0.052302	0.000000	0.000000	0.000000	0.000000	-24.825476	0.000000	
12.536625	0.000000	0.000000	0.000000	0.000000	0.000000	0.000000	30.810117	733.669577	-51.873599	0.270789	0.000000	-0.052350	0.000000	0.000000	0.000000	0.000000	-24.639766	0.000000	
12.538292	0.000000	0.000000	0.000000	0.000000	0.000000	0.000000	30.360965	730.543060	-51.617599	0.269417	0.000000	-0.052396	0.000000	0.000000	0.000000	0.000000	-24.455860	0.000000	
12.539955	0.000000	0.000000	0.000000	0.000000	0.000000	0.000000	29.920434	727.455756	-51.364642	0.268071	0.000000	-0.052440	0.000000	0.000000	0.000000	0.000000	-24.274068	0.000000	
12.541637	0.000000	0.000000	0.000000	0.000000	0.000000	0.000000	29.488452	724.411801	-51.115127	0.266753	0.000000	-0.052480	0.000000	0.000000	0.000000	0.000000	-24.094680	0.000000	
12.543292	0.000000	0.000000	0.000000	0.000000	0.000000	0.000000	29.064924	721.415163	-50.869420	0.265464	0.000000	-0.052518	0.000000	0.000000	0.000000	0.000000	-23.917965	0.000000	
12.544952	0.000000	0.000000	0.000000	0.000000	0.000000	0.000000	28.649724	718.469643	-50.627853	0.264206	0.000000	-0.052552	0.000000	0.000000	0.000000	0.000000	-23.744174	0.000000	
12.546635	0.000000	0.000000	0.000000	0.000000	0.000000	0.000000	28.242704	715.578877	-50.390727	0.262980	0.000000	-0.052583	0.000000	0.000000	0.000000	0.000000	-23.573537	0.000000	
12.548294	0.000000	0.000000	0.000000	0.000000	0.000000	0.000000	27.843684	712.746336	-50.158305	0.261789	0.000000	-0.052610	0.000000	0.000000	0.000000	0.000000	-23.406262	0.000000	
12.549952	0.000000	0.000000	0.000000	0.000000	0.000000	0.000000	27.452458	709.975328	-49.930820	0.260634	0.000000	-0.052634	0.000000	0.000000	0.000000	0.000000	-23.242539	0.000000	
12.551635	0.000000	0.000000	0.000000	0.000000	0.000000	0.000000	27.068794	707.268998	-49.708469	0.259515	0.000000	-0.052653	0.000000	0.000000	0.000000	0.000000	-23.082537	0.000000	
12.553294	0.000000	0.000000	0.000000	0.000000	0.000000	0.000000	26.692430	704.630329	-49.491417	0.258434	0.000000	-0.052669	0.000000	0.000000	0.000000	0.000000	-22.926405	0.000000	
12.554952	0.000000	0.000000	0.000000	0.000000	0.000000	0.000000	26.323080	702.062148	-49.279797	0.257392	0.000000	-0.052681	0.000000	0.000000	0.000000	0.000000	-22.774271	0.000000	
12.556636	0.000000	0.000000	0.000000	0.000000	0.000000	0.000000	25.960428	699.567125	-49.073708	0.256388	0.000000	-0.052689	0.000000	0.000000	0.000000	0.000000	-22.626247	0.000000	
12.558293	0.000000	0.000000	0.000000	0.000000	0.000000	0.000000	25.604133	697.147777	-48.873219	0.255425	0.000000	-0.052693	0.000000	0.000000	0.000000	0.000000	-22.482424	0.000000	
12.559956	0.000000	0.000000	0.000000	0.000000	0.000000	0.000000	25.253828	694.806469	-48.678371	0.254501	0.000000	-0.052692	0.000000	0.000000	0.000000	0.000000	-22.342877	0.000000	
12.561633	0.000000	0.000000	0.000000	0.000000	0.000000	0.000000	24.909119	692.545420	-48.489177	0.253616	0.000000	-0.052688	0.000000	0.000000	0.000000	0.000000	-22.207663	0.000000	
12.563291	0.000000	0.000000	0.000000	0.000000	0.000000	0.000000	24.569590	690.366702	-48.305621	0.252771	0.000000	-0.052679	0.000000	0.000000	0.000000	0.000000	-22.076823	0.000000	
12.564955	0.000000	0.000000	0.000000	0.000000	0.000000	0.000000	24.234798	688.272247	-48.127665	0.251964	0.000000	-0.052666	0.000000	0.000000	0.000000	0.000000	-21.950384	0.000000	
12.566637	0.000000	0.000000	0.000000	0.000000	0.000000	0.000000	23.904278	686.263847	-47.955247	0.251196	0.000000	-0.052649	0.000000	0.000000	0.000000	0.000000	-21.828357	0.000000	
12.568288	0.000000	0.000000	0.000000	0.000000	0.000000	0.000000	23.577544	684.343158	-47.788285	0.250464	0.000000	-0.052628	0.000000	0.000000	0.000000	0.000000	-21.710742	0.000000	
12.569952	0.000000	0.000000	0.000000	0.000000	0.000000	0.000000	23.254088	682.511705	-47.626676	0.249769	0.000000	-0.052603	0.000000	0.000000	0.000000	0.000000	-21.597524	0.000000	
12.571627	0.000000	0.000000	0.000000	0.000000	0.000000	0.000000	22.933383	680.770883	-47.470303	0.249108	0.000000	-0.052574	0.000000	0.000000	0.000000	0.000000	-21.488679	0.000000	
12.573289	0.000000	0.000000	0.000000	0.000000	0.000000	0.000000	22.614883	679.121959	-47.319033	0.248481	0.000000	-0.052541	0.000000	0.000000	0.000000	0.000000	-21.384171	0.000000	
12.574952	0.000000	0.000000	0.000000	0.000000	0.000000	0.000000	22.298025	677.566080	-47.172720	0.247884	0.000000	-0.052505	0.000000	0.000000	0.000000	0.000000	-21.283956	0.000000	
12.576625	0.000000	0.000000	0.000000	0.000000	0.000000	0.000000	21.982233	676.104271	-47.031209	0.247317	0.000000	-0.052464	0.000000	0.000000	0.000000	0.000000	-21.187981	0.000000	
12.578288	0.000000	0.000000	0.000000	0.000000	0.000000	0.000000	21.666915	674.737438	-46.894337	0.246777	0.000000	-0.052421	0.000000	0.000000	0.000000	0.000000	-21.096186	0.000000	
12.579954	0.000000	0.000000	0.000000	0.000000	0.000000	0.000000	21.351470	673.466376	-46.761933	0.246262	0.000000	-0.052374	0.000000	0.000000	0.000000	0.000000	-21.008505	0.000000	
12.581630	0.000000	0.000000	0.000000	0.000000	0.000000	0.000000	21.035285	672.291765	-46.633825	0.245770	0.000000	-0.052324	0.000000	0.000000	0.000000	0.000000	-20.924866	0.000000	
12.583285	0.000000	0.000000	0.000000	0.000000	0.000000	0.000000	20.717740	671.214179	-46.509837	0.245297	0.000000	-0.052272	0.000000	0.000000	0.000000	0.000000	-20.845193	0.000000	
12.584970	0.000000	0.000000	0.000000	0.000000	0.000000	0.000000	20.398210	670.234082	-46.389796	0.244842	0.000000	-0.052216	0.000000	0.000000	0.000000	0.000000	-20.769407	0.000000	
12.586647	0.000000	0.000000	0.000000	0.000000	0.000000	0.000000	20.076066	669.351837	-46.273527	0.244402	0.000000	-0.052159	0.000000	0.000000	0.000000	0.000000	-20.697426	0.000000	
12.588286	0.000000	0.000000	0.000000	0.000000	0.000000	0.000000	19.750679	668.567702	-46.160863	0.243974	0.000000	-0.052099	0.000000	0.000000	0.000000	0.000000	-20.629166	0.000000	
12.589959	0.000000	0.000000	0.000000	0.000000	0.000000	0.000000	19.421419	667.881838	-46.051640	0.243554	0.000000	-0.052037	0.000000	0.000000	0.000000	0.000000	-20.564543	0.000000	
12.591629	0.000000	0.000000	0.000000	0.000000	0.000000	0.000000	19.087660	667.294306	-45.945703	0.243140	0.000000	-0.051974	0.000000	0.000000	0.000000	0.000000	-20.503471	0.000000	
12.593288	0.000000	0.000000	0.000000	0.000000	0.000000	0.000000	18.748783	666.805073	-45.842904	0.242730	0.000000	-0.051909	0.000000	0.000000	0.000000	0.000000	-20.445868	0.000000	
12.594957	0.000000	0.000000	0.000000	0.000000	0.000000	0.000000	18.404174	666.414012	-45.743106	0.242320	0.000000	-0.051843	0.000000	0.000000	0.000000	0.000000	-20.391649	0.000000	
12.596640	0.000000	0.000000	0.000000	0.000000	0.000000	0.000000	18.053232	666.120901	-45.646182	0.241907	0.000000	-0.051776	0.000000	0.000000	0.000000	0.000000	-20.340736	0.000000	
12.598291	0.000000	0.000000	0.000000	0.000000	0.000000	0.000000	17.695367	665.925430	-45.552020	0.241489	0.000000	-0.051708	0.000000	0.000000	0.000000	0.000000	-20.293048	0.000000	
12.599961	0.000000	0.000000	0.000000	0.000000	0.000000	0.000000	17.330006	665.827200	-45.460518	0.241063	0.000000	-0.051640	0.000000	0.000000	0.000000	0.000000	-20.248511	0.000000	
